<svg xmlns="http://www.w3.org/2000/svg" viewBox="0 0 512 512">
  <!-- Background -->
  <rect width="512" height="512" rx="112" fill="#3a5c2d"/>
  <!-- Glow behind fairy -->
  <circle cx="256" cy="248" r="180" fill="#4d7a3c" opacity="0.5"/>
  <circle cx="256" cy="248" r="120" fill="#6a9a52" opacity="0.35"/>
  <!-- Wings -->
  <g fill="#b0de88" opacity="0.92">
    <path d="M232 212 C120 68 24 100 56 196 C80 268 168 292 232 244 Z"/>
    <path d="M280 212 C392 68 488 100 456 196 C432 268 344 292 280 244 Z"/>
    <path d="M232 260 C136 268 80 340 136 372 C184 396 232 340 240 284 Z"/>
    <path d="M280 260 C376 268 432 340 376 372 C328 396 280 340 272 284 Z"/>
  </g>
  <!-- Wing veins -->
  <g stroke="#8dc96a" stroke-width="7" fill="none" opacity="0.7" stroke-linecap="round">
    <path d="M226 226 C170 160 110 130 78 168"/>
    <path d="M286 226 C342 160 402 130 434 168"/>
    <path d="M234 272 C180 288 140 324 152 352"/>
    <path d="M278 272 C332 288 372 324 360 352"/>
  </g>
  <!-- Body -->
  <g fill="#1f3517">
    <circle cx="256" cy="108" r="46"/>
    <path d="M256 162 C224 162 212 194 200 258 L184 330 Q256 366 328 330 L312 258 C300 194 288 162 256 162 Z"/>
  </g>
  <!-- Legs -->
  <path d="M228 354 L220 424 M284 354 L292 424" stroke="#1f3517" stroke-width="24" stroke-linecap="round" fill="none"/>
  <!-- Sparkles -->
  <g fill="#f2d478">
    <path d="M408 56 l13 30 30 13 -30 13 -13 30 -13 -30 -30 -13 30 -13 Z"/>
    <path d="M92 396 l9 21 21 9 -21 9 -9 21 -9 -21 -21 -9 21 -9 Z"/>
    <circle cx="76" cy="84" r="14"/>
    <circle cx="444" cy="300" r="12"/>
    <circle cx="130" cy="300" r="9"/>
    <circle cx="400" cy="428" r="10"/>
  </g>
</svg>
